<svg height="50" viewBox="0 0 100 400" width="350" xmlns="http://www.w3.org/2000/svg"><path d="m104 64h80v88h-80z" fill="#ebebeb"/><path d="m104 128h80v16h-80z" fill="#dbdbdb"/><path d="m104 88h80v16h-80z" fill="#4298d1"/><path d="m432 208h16v40h-16z" fill="#878787"/><path d="m464 216h-72a8 8 0 0 1 0-16h72a8 8 0 0 1 0 16z" fill="#a8a8a8"/><path d="m272 248h-152v-104h128l16 32h8z" fill="#69b9e7"/><path d="m400 240v8h-136v-72h120z" fill="#ebebeb"/><path d="m128 248h-80v-8l16-56-8-8v-32h72z" fill="#4298d1"/><g fill="#bef5fa"><path d="m160 200h16v16h-16z"/><path d="m192 200h16v16h-16z"/><path d="m224 200h16v16h-16z"/><path d="m160 168h16v16h-16z"/><path d="m192 168h16v16h-16z"/><path d="m224 168h16v16h-16z"/></g><path d="m288 200h16v16h-16z" fill="#a8a8a8"/><path d="m320 200h16v16h-16z" fill="#a8a8a8"/><path d="m352 200h16v16h-16z" fill="#a8a8a8"/><path d="m52.571 224-4.571 16h80v-16z" fill="#3e8cc7"/><path d="m128 224h135.961v16.039h-135.961z" fill="#4298d1"/><path d="m264 224v16h136l-4-16z" fill="#dbdbdb"/><path d="m448 384h-384v-40l-40-72v-32h464v32l-40 80z" fill="#69b9e7"/><path d="m408 344-16.046 8h-287.954a43.414 43.414 0 0 1 12.157-30.129l4.421-4.586a43.412 43.412 0 0 1 31.26-13.285h34.2l9.138-6.374a142.516 142.516 0 0 1 81.537-25.626 142.515 142.515 0 0 1 81.429 25.554l16.186 11.268 19.179 1.81a16 16 0 0 1 14.493 15.929z" fill="#ebebeb"/><path d="m393.507 310.632-19.179-1.811-16.185-11.268a142.38 142.38 0 0 0 -16.669-9.912l-2.406 3.55-17.63 12.809h-169.6a43.408 43.408 0 0 0 -31.256 13.285l-4.421 4.586a43.412 43.412 0 0 0 -12.161 30.129h287.958l16.042-8v-17.439a16 16 0 0 0 -14.493-15.929z" fill="#f85542"/><path d="m263.808 304 .192 21.68-16.679 26.32h18.942l12.5-19.719a7.994 7.994 0 0 0 1.237-4.281l-.191-24z" fill="#bb4033"/><path d="m263.808 304h16l.3-31.895c-1.135-.028-2.266-.105-3.4-.105-4.222 0-8.42.242-12.6.613z" fill="#cbcbcb"/><path d="m72 280v-16h-48v8l4.444 8z" fill="#4298d1"/><path d="m440 280h44l4-8v-8h-48z" fill="#4298d1"/><circle cx="164.014" cy="352.494" fill="#ebebeb" r="23.506"/><path d="m164.016 384a31.508 31.508 0 1 1 31.507-31.508 31.542 31.542 0 0 1 -31.507 31.508zm0-47.016a15.508 15.508 0 1 0 15.507 15.508 15.521 15.521 0 0 0 -15.507-15.508z" fill="#787d82"/><circle cx="352.065" cy="352.494" fill="#ebebeb" r="23.506"/><path d="m352.062 384a31.508 31.508 0 1 1 31.508-31.508 31.54 31.54 0 0 1 -31.508 31.508zm0-47.016a15.508 15.508 0 1 0 15.508 15.508 15.52 15.52 0 0 0 -15.508-15.508z" fill="#787d82"/></svg>
